<?xml version="1.0" encoding="utf-8"?>
<svg width="512" height="512" viewBox="0 0 512 512" xmlns="http://www.w3.org/2000/svg" xmlns:bx="https://boxy-svg.com">
  <defs>
    <filter id="spot-light-filter-0" bx:preset="spot-light 1 0.5 0.5 1 0.5 0.5 0 26 #ffffff 42 2 0.29 0" primitiveUnits="objectBoundingBox" color-interpolation-filters="sRGB" x="-50%" y="-50%" width="200%" height="200%">
      <feSpecularLighting result="specular-lighting" lighting-color="#ffffff" specularConstant="2" specularExponent="42">
        <feSpotLight x="0.5" y="0.5" z="1" limitingConeAngle="26" pointsAtX="0.5" pointsAtY="0.5" pointsAtZ="0"/>
      </feSpecularLighting>
      <feDiffuseLighting result="diffuse-lighting" lighting-color="#ffffff" diffuseConstant="0.29">
        <feSpotLight x="0.5" y="0.5" z="1" limitingConeAngle="26" pointsAtX="0.5" pointsAtY="0.5" pointsAtZ="0"/>
      </feDiffuseLighting>
      <feMerge result="lighting">
        <feMergeNode in="diffuse-lighting"/>
        <feMergeNode in="specular-lighting"/>
      </feMerge>
      <feComposite in="SourceGraphic" in2="lighting" operator="arithmetic" k1="1" k2="0" k3="0" k4="0"/>
    </filter>
    <filter id="point-light-filter-0" bx:preset="point-light 1 0.5 0.5 0.5 90 0.74 0.59 0.18 #ffffff" primitiveUnits="objectBoundingBox" color-interpolation-filters="sRGB" x="-50%" y="-50%" width="200%" height="200%">
      <feSpecularLighting result="specular-lighting" lighting-color="#ffffff" specularConstant="0.74" specularExponent="90">
        <fePointLight x="0.5" y="0.5" z="0.5"/>
      </feSpecularLighting>
      <feDiffuseLighting result="diffuse-lighting" lighting-color="#ffffff" diffuseConstant="0.59">
        <fePointLight x="0.5" y="0.5" z="0.5"/>
      </feDiffuseLighting>
      <feMerge result="lighting">
        <feMergeNode in="diffuse-lighting"/>
        <feMergeNode in="specular-lighting"/>
      </feMerge>
      <feComposite in="SourceGraphic" in2="lighting" operator="arithmetic" k1="1" k2="0.18" k3="0" k4="0"/>
    </filter>
  </defs>
  <circle cx="256" cy="256" r="240" fill="#2C2C2E" style="filter: url(&quot;#spot-light-filter-0&quot;);"/>
  <path d="M 126.617 414.59 L 126.617 387.99 L 146.225 387.99 L 146.225 392.36 L 131.861 392.36 L 131.861 414.59 Z M 131.443 404.52 L 131.443 400.188 L 144.591 400.188 L 144.591 404.52 Z M 165.146 415.008 Q 162.068 415.008 159.408 413.963 Q 156.748 412.918 154.81 411.075 Q 152.872 409.232 151.808 406.743 Q 150.744 404.254 150.744 401.29 Q 150.744 398.326 151.808 395.837 Q 152.872 393.348 154.829 391.505 Q 156.786 389.662 159.408 388.617 Q 162.03 387.572 165.108 387.572 Q 168.262 387.572 170.865 388.598 Q 173.468 389.624 175.406 391.467 Q 177.344 393.31 178.427 395.818 Q 179.51 398.326 179.51 401.29 Q 179.51 404.292 178.427 406.781 Q 177.344 409.27 175.406 411.113 Q 173.468 412.956 170.865 413.982 Q 168.262 415.008 165.146 415.008 Z M 165.108 410.448 Q 167.122 410.448 168.756 409.764 Q 170.39 409.08 171.625 407.864 Q 172.86 406.648 173.544 404.976 Q 174.228 403.304 174.228 401.29 Q 174.228 399.276 173.544 397.623 Q 172.86 395.97 171.644 394.735 Q 170.428 393.5 168.775 392.816 Q 167.122 392.132 165.108 392.132 Q 163.17 392.132 161.517 392.816 Q 159.864 393.5 158.61 394.735 Q 157.356 395.97 156.672 397.623 Q 155.988 399.276 155.988 401.29 Q 155.988 403.266 156.672 404.938 Q 157.356 406.61 158.61 407.864 Q 159.864 409.118 161.517 409.783 Q 163.17 410.448 165.108 410.448 Z M 198.987 415.008 Q 195.947 415.008 193.344 414.001 Q 190.741 412.994 188.803 411.132 Q 186.865 409.27 185.801 406.781 Q 184.737 404.292 184.737 401.29 Q 184.737 398.288 185.801 395.799 Q 186.865 393.31 188.803 391.448 Q 190.741 389.586 193.344 388.579 Q 195.947 387.572 199.025 387.572 Q 202.331 387.572 205.067 388.731 Q 207.803 389.89 209.627 392.094 L 206.245 395.248 Q 204.877 393.728 203.091 392.93 Q 201.305 392.132 199.291 392.132 Q 197.239 392.132 195.567 392.816 Q 193.895 393.5 192.622 394.716 Q 191.349 395.932 190.665 397.604 Q 189.981 399.276 189.981 401.29 Q 189.981 403.304 190.665 404.976 Q 191.349 406.648 192.622 407.864 Q 193.895 409.08 195.567 409.764 Q 197.239 410.448 199.291 410.448 Q 201.305 410.448 203.091 409.65 Q 204.877 408.852 206.245 407.294 L 209.627 410.448 Q 207.803 412.652 205.067 413.83 Q 202.331 415.008 198.987 415.008 Z M 227.322 415.008 Q 221.812 415.008 218.696 411.892 Q 215.58 408.776 215.58 402.962 L 215.58 387.99 L 220.824 387.99 L 220.824 402.81 Q 220.824 406.8 222.553 408.624 Q 224.282 410.448 227.36 410.448 Q 230.514 410.448 232.224 408.624 Q 233.934 406.8 233.934 402.81 L 233.934 387.99 L 239.064 387.99 L 239.064 402.962 Q 239.064 408.776 235.948 411.892 Q 232.832 415.008 227.322 415.008 Z M 256.186 415.008 Q 253.032 415.008 250.163 414.115 Q 247.294 413.222 245.584 411.816 L 247.408 407.788 Q 249.042 409.042 251.379 409.859 Q 253.716 410.676 256.186 410.676 Q 258.2 410.676 259.454 410.258 Q 260.708 409.84 261.278 409.08 Q 261.848 408.32 261.848 407.37 Q 261.848 406.192 260.993 405.489 Q 260.138 404.786 258.77 404.349 Q 257.402 403.912 255.711 403.532 Q 254.02 403.152 252.329 402.639 Q 250.638 402.126 249.251 401.309 Q 247.864 400.492 247.028 399.105 Q 246.192 397.718 246.192 395.628 Q 246.192 393.386 247.351 391.581 Q 248.51 389.776 250.904 388.674 Q 253.298 387.572 256.984 387.572 Q 259.416 387.572 261.791 388.199 Q 264.166 388.826 265.952 389.966 L 264.318 393.994 Q 262.494 392.93 260.613 392.417 Q 258.732 391.904 256.946 391.904 Q 254.97 391.904 253.716 392.379 Q 252.462 392.854 251.911 393.633 Q 251.36 394.412 251.36 395.4 Q 251.36 396.54 252.215 397.243 Q 253.07 397.946 254.438 398.364 Q 255.806 398.782 257.497 399.162 Q 259.188 399.542 260.879 400.055 Q 262.57 400.568 263.957 401.385 Q 265.344 402.202 266.199 403.57 Q 267.054 404.938 267.054 406.99 Q 267.054 409.156 265.857 410.961 Q 264.66 412.766 262.266 413.887 Q 259.872 415.008 256.186 415.008 Z M 278.814 414.59 L 278.814 392.398 L 270.074 392.398 L 270.074 387.99 L 292.798 387.99 L 292.798 392.398 L 284.02 392.398 L 284.02 414.59 Z M 310.605 415.008 Q 307.527 415.008 304.867 413.963 Q 302.207 412.918 300.269 411.075 Q 298.331 409.232 297.267 406.743 Q 296.203 404.254 296.203 401.29 Q 296.203 398.326 297.267 395.837 Q 298.331 393.348 300.288 391.505 Q 302.245 389.662 304.867 388.617 Q 307.489 387.572 310.567 387.572 Q 313.721 387.572 316.324 388.598 Q 318.927 389.624 320.865 391.467 Q 322.803 393.31 323.886 395.818 Q 324.969 398.326 324.969 401.29 Q 324.969 404.292 323.886 406.781 Q 322.803 409.27 320.865 411.113 Q 318.927 412.956 316.324 413.982 Q 313.721 415.008 310.605 415.008 Z M 310.567 410.448 Q 312.581 410.448 314.215 409.764 Q 315.849 409.08 317.084 407.864 Q 318.319 406.648 319.003 404.976 Q 319.687 403.304 319.687 401.29 Q 319.687 399.276 319.003 397.623 Q 318.319 395.97 317.103 394.735 Q 315.887 393.5 314.234 392.816 Q 312.581 392.132 310.567 392.132 Q 308.629 392.132 306.976 392.816 Q 305.323 393.5 304.069 394.735 Q 302.815 395.97 302.131 397.623 Q 301.447 399.276 301.447 401.29 Q 301.447 403.266 302.131 404.938 Q 302.815 406.61 304.069 407.864 Q 305.323 409.118 306.976 409.783 Q 308.629 410.448 310.567 410.448 Z M 332.019 414.59 L 332.019 387.99 L 336.351 387.99 L 352.805 408.13 L 350.677 408.13 L 350.677 387.99 L 355.845 387.99 L 355.845 414.59 L 351.513 414.59 L 335.097 394.45 L 337.225 394.45 L 337.225 414.59 Z M 364.799 414.59 L 364.799 387.99 L 384.407 387.99 L 384.407 392.36 L 370.005 392.36 L 370.005 410.22 L 384.939 410.22 L 384.939 414.59 Z M 369.625 403.19 L 369.625 398.972 L 382.773 398.972 L 382.773 403.19 Z" style="fill: rgb(229, 229, 231); text-wrap-mode: nowrap; filter: url(&quot;#point-light-filter-0&quot;);"/>
  <g transform="matrix(1, 0, 0, 1, 0, 49.5)">
    <rect x="156" y="72" width="200" height="40" style="fill: rgb(216, 216, 216); stroke-width: 1; stroke: rgba(0, 0, 0, 0);"/>
    <rect x="236" y="111" width="40" height="60" style="fill: rgb(216, 216, 216); stroke-width: 1; stroke: rgba(0, 0, 0, 0);"/>
    <rect x="156" y="131" width="40" height="176" style="fill: rgb(216, 216, 216); stroke-width: 1; stroke: rgba(0, 0, 0, 0);"/>
    <rect x="195.383" y="190" width="118" height="40" style="fill: rgb(216, 216, 216); stroke-width: 1; stroke: rgba(0, 0, 0, 0);"/>
    <rect x="236" y="247" width="40" height="60" style="fill: rgb(216, 216, 216); stroke-width: 1; stroke: rgba(0, 0, 0, 0);"/>
  </g>
</svg>